<svg xmlns="http://www.w3.org/2000/svg" xmlns:xlink="http://www.w3.org/1999/xlink" width="500" zoomAndPan="magnify" viewBox="0 0 375 374.999991" height="500" preserveAspectRatio="xMidYMid meet" version="1.0"><defs><g/><clipPath id="b019a40cd4"><path d="M 21.226562 21.859375 L 353.796875 21.859375 L 353.796875 353.140625 L 21.226562 353.140625 Z M 21.226562 21.859375 " clip-rule="nonzero"/></clipPath><clipPath id="d7fdc576c0"><path d="M 187.5 21.859375 C 95.667969 21.859375 21.226562 96.019531 21.226562 187.5 C 21.226562 278.980469 95.667969 353.140625 187.5 353.140625 C 279.332031 353.140625 353.773438 278.980469 353.773438 187.5 C 353.773438 96.019531 279.332031 21.859375 187.5 21.859375 Z M 187.5 21.859375 " clip-rule="nonzero"/></clipPath><clipPath id="a0249068c8"><path d="M 21.226562 21.863281 L 353.476562 21.863281 L 353.476562 353.359375 L 21.226562 353.359375 Z M 21.226562 21.863281 " clip-rule="nonzero"/></clipPath><clipPath id="534a27f129"><path d="M 187.496094 21.863281 C 95.667969 21.863281 21.226562 96.019531 21.226562 187.5 C 21.226562 278.976562 95.667969 353.136719 187.496094 353.136719 C 279.328125 353.136719 353.769531 278.976562 353.769531 187.5 C 353.769531 96.019531 279.328125 21.863281 187.496094 21.863281 Z M 187.496094 21.863281 " clip-rule="nonzero"/></clipPath><clipPath id="e0c71e648f"><path d="M 67.257812 80.757812 L 90.507812 80.757812 L 90.507812 103.257812 L 67.257812 103.257812 Z M 67.257812 80.757812 " clip-rule="nonzero"/></clipPath><clipPath id="8f1fdb0974"><path d="M 283.820312 80.757812 L 307.070312 80.757812 L 307.070312 103.257812 L 283.820312 103.257812 Z M 283.820312 80.757812 " clip-rule="nonzero"/></clipPath><clipPath id="88f56e1907"><path d="M 42.714844 218.347656 L 65.964844 218.347656 L 65.964844 240.847656 L 42.714844 240.847656 Z M 42.714844 218.347656 " clip-rule="nonzero"/></clipPath><clipPath id="b684c46808"><path d="M 314.277344 218.347656 L 337.527344 218.347656 L 337.527344 240.847656 L 314.277344 240.847656 Z M 314.277344 218.347656 " clip-rule="nonzero"/></clipPath><clipPath id="71b172b76d"><path d="M 70.585938 71.035156 L 304.429688 71.035156 L 304.429688 303.964844 L 70.585938 303.964844 Z M 70.585938 71.035156 " clip-rule="nonzero"/></clipPath><clipPath id="49799d4b8b"><path d="M 187.5 71.035156 C 122.929688 71.035156 70.585938 123.175781 70.585938 187.5 C 70.585938 251.824219 122.929688 303.964844 187.5 303.964844 C 252.070312 303.964844 304.414062 251.824219 304.414062 187.5 C 304.414062 123.175781 252.070312 71.035156 187.5 71.035156 Z M 187.5 71.035156 " clip-rule="nonzero"/></clipPath><clipPath id="c4d0820897"><path d="M 70.589844 71.035156 L 304.585938 71.035156 L 304.585938 304 L 70.589844 304 Z M 70.589844 71.035156 " clip-rule="nonzero"/></clipPath><clipPath id="40011b0936"><path d="M 187.5 71.035156 C 122.933594 71.035156 70.589844 123.175781 70.589844 187.496094 C 70.589844 251.8125 122.933594 303.957031 187.5 303.957031 C 252.066406 303.957031 304.40625 251.8125 304.40625 187.496094 C 304.40625 123.175781 252.066406 71.035156 187.5 71.035156 Z M 187.5 71.035156 " clip-rule="nonzero"/></clipPath></defs><g clip-path="url(#b019a40cd4)"><g clip-path="url(#d7fdc576c0)"><path fill="#faf7f5" d="M 21.226562 21.859375 L 353.796875 21.859375 L 353.796875 353.140625 L 21.226562 353.140625 Z M 21.226562 21.859375 " fill-opacity="1" fill-rule="nonzero"/></g></g><g clip-path="url(#a0249068c8)"><g clip-path="url(#534a27f129)"><path stroke-linecap="butt" transform="matrix(0.75, 0, 0, 0.75, 21.225465, 21.863319)" fill="none" stroke-linejoin="miter" d="M 221.694173 -0.0000501791 C 99.256672 -0.0000501791 0.00146383 98.87495 0.00146383 220.848909 C 0.00146383 342.817659 99.256672 441.697867 221.694173 441.697867 C 344.136881 441.697867 443.39209 342.817659 443.39209 220.848909 C 443.39209 98.87495 344.136881 -0.0000501791 221.694173 -0.0000501791 Z M 221.694173 -0.0000501791 " stroke="#000000" stroke-width="2" stroke-opacity="1" stroke-miterlimit="4"/></g></g><g fill="#000000" fill-opacity="1"><g transform="translate(58.916622, 278.527514)"><g><path d="M 28.15625 3.421875 C 27.738281 3.097656 27.332031 2.859375 26.9375 2.703125 C 26.539062 2.546875 26.175781 2.628906 25.84375 2.953125 L 14.96875 13.421875 C 14.625 13.742188 14.519531 14.109375 14.65625 14.515625 C 14.800781 14.921875 15.03125 15.332031 15.34375 15.75 L 15.25 15.84375 L 10.71875 11.140625 L 10.8125 11.046875 C 11.238281 11.390625 11.644531 11.632812 12.03125 11.78125 C 12.425781 11.9375 12.796875 11.851562 13.140625 11.53125 L 24.109375 0.96875 L 6.890625 7.5625 L 12.375 -7.9375 L 5.265625 -1.09375 C 4.429688 -0.289062 3.847656 0.390625 3.515625 0.953125 C 3.191406 1.523438 3.046875 2 3.078125 2.375 C 3.109375 2.757812 3.226562 3.09375 3.4375 3.375 L 3.34375 3.46875 L 0.265625 0.28125 L 0.359375 0.1875 C 0.640625 0.414062 0.9375 0.578125 1.25 0.671875 C 1.570312 0.773438 1.988281 0.703125 2.5 0.453125 C 3.019531 0.210938 3.703125 -0.3125 4.546875 -1.125 L 12.765625 -9.03125 C 12.953125 -9.550781 13.085938 -10.054688 13.171875 -10.546875 C 13.253906 -11.046875 13.25 -11.632812 13.15625 -12.3125 L 15.734375 -9.640625 L 10.328125 5.6875 L 25.0625 0.046875 L 28.234375 3.34375 Z M 28.15625 3.421875 "/></g></g></g><g fill="#000000" fill-opacity="1"><g transform="translate(83.955681, 302.605752)"><g><path d="M 16.40625 7.296875 C 16.207031 8.128906 16.082031 8.789062 16.03125 9.28125 C 15.976562 9.78125 16.007812 10.179688 16.125 10.484375 C 16.25 10.796875 16.445312 11.078125 16.71875 11.328125 L 16.65625 11.421875 L 10.6875 7.328125 L 10.75 7.234375 C 11.269531 7.535156 11.742188 7.722656 12.171875 7.796875 C 12.597656 7.878906 12.972656 7.78125 13.296875 7.5 C 13.617188 7.21875 13.863281 6.675781 14.03125 5.875 L 14.328125 4.515625 L 6.015625 -1.171875 L 4.828125 -0.4375 C 4.148438 -0.0078125 3.734375 0.390625 3.578125 0.765625 C 3.421875 1.140625 3.429688 1.5 3.609375 1.84375 C 3.785156 2.1875 4.046875 2.53125 4.390625 2.875 L 4.328125 2.96875 L 0.421875 0.296875 L 0.484375 0.203125 C 0.835938 0.328125 1.1875 0.390625 1.53125 0.390625 C 1.875 0.390625 2.265625 0.300781 2.703125 0.125 C 3.148438 -0.0390625 3.707031 -0.34375 4.375 -0.78125 L 16.546875 -8.421875 L 16.84375 -8.921875 L 17.328125 -8.90625 L 20.1875 -8.875 C 20.125 -8.789062 20.0625 -8.648438 20 -8.453125 C 19.9375 -8.253906 19.832031 -7.800781 19.6875 -7.09375 Z M 6.4375 -1.46875 L 14.453125 4.03125 L 17.1875 -8.203125 Z M 6.4375 -1.46875 "/></g></g></g><g fill="#000000" fill-opacity="1"><g transform="translate(111.821778, 320.186202)"><g><path d="M 20.109375 -10.9375 L 24.1875 -9.171875 L 24.140625 -9.0625 C 23.804688 -9.164062 23.472656 -9.195312 23.140625 -9.15625 C 22.804688 -9.125 22.445312 -8.898438 22.0625 -8.484375 C 21.675781 -8.066406 21.25 -7.316406 20.78125 -6.234375 L 16.921875 2.671875 C 16.390625 3.898438 15.992188 4.863281 15.734375 5.5625 C 15.472656 6.257812 15.253906 6.820312 15.078125 7.25 L 15.015625 7.28125 L 8.984375 -12.859375 L 4.6875 -2.9375 C 4.226562 -1.863281 3.953125 -1.003906 3.859375 -0.359375 C 3.765625 0.285156 3.804688 0.773438 3.984375 1.109375 C 4.171875 1.453125 4.410156 1.71875 4.703125 1.90625 L 4.65625 2.015625 L 0.59375 0.25 L 0.640625 0.140625 C 0.992188 0.234375 1.332031 0.265625 1.65625 0.234375 C 1.988281 0.210938 2.34375 -0.0078125 2.71875 -0.4375 C 3.101562 -0.863281 3.53125 -1.613281 4 -2.6875 L 8.75 -13.65625 C 8.5625 -14.289062 8.363281 -14.828125 8.15625 -15.265625 C 7.945312 -15.703125 7.695312 -16.097656 7.40625 -16.453125 L 11.390625 -14.71875 C 11.398438 -14.539062 11.421875 -14.320312 11.453125 -14.0625 C 11.484375 -13.800781 11.566406 -13.46875 11.703125 -13.0625 L 16.359375 2.59375 L 20.078125 -5.984375 C 20.546875 -7.066406 20.820312 -7.925781 20.90625 -8.5625 C 20.988281 -9.207031 20.945312 -9.703125 20.78125 -10.046875 C 20.613281 -10.398438 20.375 -10.660156 20.0625 -10.828125 Z M 20.109375 -10.9375 "/></g></g></g><g fill="#000000" fill-opacity="1"><g transform="translate(140.851114, 331.570635)"><g><path d="M 17.953125 0.625 C 18.066406 1.457031 18.191406 2.113281 18.328125 2.59375 C 18.472656 3.070312 18.660156 3.429688 18.890625 3.671875 C 19.117188 3.910156 19.410156 4.097656 19.765625 4.234375 L 19.734375 4.34375 L 12.65625 2.78125 L 12.6875 2.671875 C 13.28125 2.753906 13.789062 2.75 14.21875 2.65625 C 14.644531 2.570312 14.953125 2.335938 15.140625 1.953125 C 15.328125 1.578125 15.351562 0.988281 15.21875 0.1875 L 14.984375 -1.171875 L 5.140625 -3.34375 L 4.3125 -2.21875 C 3.832031 -1.5625 3.59375 -1.03125 3.59375 -0.625 C 3.59375 -0.226562 3.738281 0.09375 4.03125 0.34375 C 4.320312 0.59375 4.695312 0.816406 5.15625 1.015625 L 5.125 1.125 L 0.5 0.109375 L 0.53125 0 C 0.894531 -0.0078125 1.234375 -0.078125 1.546875 -0.203125 C 1.867188 -0.335938 2.203125 -0.566406 2.546875 -0.890625 C 2.898438 -1.222656 3.304688 -1.710938 3.765625 -2.359375 L 12.1875 -14.03125 L 12.265625 -14.578125 L 12.71875 -14.765625 L 15.40625 -15.796875 C 15.375 -15.691406 15.359375 -15.535156 15.359375 -15.328125 C 15.367188 -15.128906 15.445312 -14.675781 15.59375 -13.96875 Z M 5.421875 -3.765625 L 14.921875 -1.6875 L 12.859375 -14.046875 Z M 5.421875 -3.765625 "/></g></g></g><g fill="#000000" fill-opacity="1"><g transform="translate(173.329206, 337.463321)"><g><path d="M 20.46875 -7.390625 C 19.9375 -7.328125 19.476562 -7.207031 19.09375 -7.03125 C 18.707031 -6.851562 18.507812 -6.535156 18.5 -6.078125 L 18.40625 -1.125 C 18.394531 -0.65625 18.578125 -0.328125 18.953125 -0.140625 C 19.335938 0.046875 19.796875 0.179688 20.328125 0.265625 L 20.328125 0.390625 L 15.484375 0.296875 L 15.78125 -1.328125 C 15.195312 -0.734375 14.46875 -0.265625 13.59375 0.078125 C 12.726562 0.421875 11.734375 0.582031 10.609375 0.5625 C 9.378906 0.539062 8.203125 0.296875 7.078125 -0.171875 C 5.960938 -0.648438 4.960938 -1.316406 4.078125 -2.171875 C 3.203125 -3.023438 2.515625 -4.03125 2.015625 -5.1875 C 1.523438 -6.34375 1.296875 -7.613281 1.328125 -9 C 1.359375 -10.5 1.675781 -11.816406 2.28125 -12.953125 C 2.882812 -14.097656 3.6875 -15.0625 4.6875 -15.84375 C 5.695312 -16.632812 6.828125 -17.222656 8.078125 -17.609375 C 9.328125 -18.003906 10.613281 -18.191406 11.9375 -18.171875 C 13.601562 -18.140625 15.007812 -17.84375 16.15625 -17.28125 C 17.3125 -16.726562 18.175781 -16.082031 18.75 -15.34375 L 15.375 -10.84375 L 15.3125 -10.875 C 15.664062 -11.71875 15.816406 -12.539062 15.765625 -13.34375 C 15.710938 -14.144531 15.472656 -14.867188 15.046875 -15.515625 C 14.617188 -16.160156 14.035156 -16.675781 13.296875 -17.0625 C 12.566406 -17.445312 11.703125 -17.644531 10.703125 -17.65625 C 9.546875 -17.6875 8.484375 -17.429688 7.515625 -16.890625 C 6.554688 -16.347656 5.78125 -15.539062 5.1875 -14.46875 C 4.59375 -13.394531 4.28125 -12.050781 4.25 -10.4375 C 4.21875 -9.09375 4.398438 -7.828125 4.796875 -6.640625 C 5.203125 -5.460938 5.773438 -4.421875 6.515625 -3.515625 C 7.265625 -2.609375 8.144531 -1.890625 9.15625 -1.359375 C 10.175781 -0.828125 11.285156 -0.550781 12.484375 -0.53125 C 13.273438 -0.507812 13.9375 -0.609375 14.46875 -0.828125 C 15.007812 -1.046875 15.453125 -1.367188 15.796875 -1.796875 L 15.875 -6.125 C 15.875 -6.425781 15.738281 -6.65625 15.46875 -6.8125 C 15.195312 -6.976562 14.679688 -7.101562 13.921875 -7.1875 C 13.171875 -7.269531 12.054688 -7.335938 10.578125 -7.390625 L 11.109375 -7.703125 L 20.484375 -7.515625 Z M 20.46875 -7.390625 "/></g></g></g><g fill="#000000" fill-opacity="1"><g transform="translate(206.044813, 336.772955)"><g><path d="M 14.828125 -7.578125 L 14.9375 -7.53125 L 14.515625 -2.40625 L 14.453125 -1.828125 L 13.5 -2.25 L 0.390625 -0.0625 L 0.375 -0.1875 C 0.863281 -0.457031 1.273438 -0.769531 1.609375 -1.125 C 1.941406 -1.476562 2.066406 -1.882812 1.984375 -2.34375 L -0.40625 -16.734375 C -0.476562 -17.191406 -0.71875 -17.472656 -1.125 -17.578125 C -1.539062 -17.691406 -2.015625 -17.738281 -2.546875 -17.71875 L -2.5625 -17.84375 L 11.0625 -20.109375 L 12.5625 -16.21875 L 12.453125 -16.15625 C 11.765625 -16.875 11.128906 -17.460938 10.546875 -17.921875 C 9.960938 -18.378906 9.34375 -18.695312 8.6875 -18.875 C 8.039062 -19.0625 7.238281 -19.078125 6.28125 -18.921875 L 2.015625 -18.203125 L 3.390625 -9.90625 L 6.953125 -10.5 C 7.847656 -10.644531 8.539062 -10.847656 9.03125 -11.109375 C 9.519531 -11.367188 9.875 -11.707031 10.09375 -12.125 C 10.320312 -12.550781 10.488281 -13.09375 10.59375 -13.75 L 11.515625 -8.203125 C 11.203125 -8.796875 10.867188 -9.253906 10.515625 -9.578125 C 10.171875 -9.910156 9.726562 -10.113281 9.1875 -10.1875 C 8.644531 -10.269531 7.925781 -10.238281 7.03125 -10.09375 L 3.46875 -9.5 L 4.84375 -1.21875 L 9.609375 -2.015625 C 10.566406 -2.171875 11.332031 -2.472656 11.90625 -2.921875 C 12.488281 -3.378906 12.992188 -3.992188 13.421875 -4.765625 C 13.859375 -5.535156 14.328125 -6.472656 14.828125 -7.578125 Z M 14.828125 -7.578125 "/></g></g></g><g fill="#000000" fill-opacity="1"><g transform="translate(234.090962, 331.225418)"><g><path d="M 14.4375 -24.421875 C 13.957031 -24.171875 13.566406 -23.894531 13.265625 -23.59375 C 12.960938 -23.289062 12.890625 -22.921875 13.046875 -22.484375 L 18.28125 -8.328125 C 18.445312 -7.890625 18.742188 -7.65625 19.171875 -7.625 C 19.597656 -7.59375 20.070312 -7.632812 20.59375 -7.75 L 20.640625 -7.625 L 14.5 -5.359375 L 14.453125 -5.484375 C 14.929688 -5.734375 15.320312 -6.007812 15.625 -6.3125 C 15.925781 -6.613281 15.992188 -6.984375 15.828125 -7.421875 L 10.546875 -21.71875 L 9.6875 -3.28125 L -2.3125 -14.515625 L 1.109375 -5.265625 C 1.515625 -4.171875 1.910156 -3.359375 2.296875 -2.828125 C 2.679688 -2.304688 3.050781 -1.984375 3.40625 -1.859375 C 3.769531 -1.734375 4.125 -1.710938 4.46875 -1.796875 L 4.515625 -1.671875 L 0.359375 -0.140625 L 0.3125 -0.265625 C 0.625 -0.421875 0.890625 -0.625 1.109375 -0.875 C 1.335938 -1.125 1.441406 -1.535156 1.421875 -2.109375 C 1.410156 -2.679688 1.203125 -3.515625 0.796875 -4.609375 L -3.15625 -15.3125 C -3.5625 -15.695312 -3.972656 -16.023438 -4.390625 -16.296875 C -4.816406 -16.578125 -5.359375 -16.8125 -6.015625 -17 L -2.53125 -18.28125 L 9.359375 -7.171875 L 10.09375 -22.953125 L 14.390625 -24.53125 Z M 14.4375 -24.421875 "/></g></g></g><g fill="#000000" fill-opacity="1"><g transform="translate(265.995947, 317.889704)"><g><path d="M 10.984375 -12.515625 L 11.109375 -12.515625 L 12.59375 -7.609375 L 12.765625 -7.046875 L 11.71875 -7.078125 L 0.328125 -0.203125 L 0.265625 -0.3125 C 0.628906 -0.738281 0.898438 -1.175781 1.078125 -1.625 C 1.253906 -2.082031 1.21875 -2.515625 0.96875 -2.921875 L -6.5625 -15.390625 C -6.8125 -15.796875 -7.144531 -15.972656 -7.5625 -15.921875 C -7.976562 -15.867188 -8.4375 -15.738281 -8.9375 -15.53125 L -9 -15.640625 L 2.828125 -22.78125 L 5.671875 -19.703125 L 5.59375 -19.609375 C 4.6875 -20.023438 3.878906 -20.335938 3.171875 -20.546875 C 2.460938 -20.765625 1.769531 -20.832031 1.09375 -20.75 C 0.425781 -20.675781 -0.320312 -20.390625 -1.15625 -19.890625 L -4.859375 -17.640625 L -0.515625 -10.453125 L 2.578125 -12.328125 C 3.359375 -12.796875 3.925781 -13.238281 4.28125 -13.65625 C 4.644531 -14.070312 4.851562 -14.519531 4.90625 -15 C 4.957031 -15.476562 4.90625 -16.039062 4.75 -16.6875 L 7.671875 -11.875 C 7.160156 -12.3125 6.679688 -12.613281 6.234375 -12.78125 C 5.785156 -12.957031 5.289062 -12.984375 4.75 -12.859375 C 4.21875 -12.742188 3.5625 -12.453125 2.78125 -11.984375 L -0.3125 -10.109375 L 4.046875 -2.90625 L 8.1875 -5.421875 C 9.019531 -5.921875 9.613281 -6.488281 9.96875 -7.125 C 10.332031 -7.757812 10.578125 -8.515625 10.703125 -9.390625 C 10.828125 -10.265625 10.921875 -11.304688 10.984375 -12.515625 Z M 10.984375 -12.515625 "/></g></g></g><g fill="#000000" fill-opacity="1"><g transform="translate(289.842621, 302.350466)"><g><path d="M -1.34375 -22.84375 L 2 -25.78125 L 2.09375 -25.6875 C 1.851562 -25.445312 1.675781 -25.164062 1.5625 -24.84375 C 1.445312 -24.519531 1.5 -24.09375 1.71875 -23.5625 C 1.9375 -23.039062 2.4375 -22.34375 3.21875 -21.46875 L 9.625 -14.1875 C 10.507812 -13.175781 11.210938 -12.398438 11.734375 -11.859375 C 12.253906 -11.328125 12.671875 -10.890625 12.984375 -10.546875 L 12.984375 -10.46875 L -7.8125 -13.59375 L -0.671875 -5.484375 C 0.0976562 -4.609375 0.757812 -3.992188 1.3125 -3.640625 C 1.863281 -3.285156 2.328125 -3.117188 2.703125 -3.140625 C 3.085938 -3.160156 3.429688 -3.265625 3.734375 -3.453125 L 3.8125 -3.359375 L 0.484375 -0.421875 L 0.40625 -0.515625 C 0.632812 -0.796875 0.804688 -1.085938 0.921875 -1.390625 C 1.046875 -1.703125 0.992188 -2.117188 0.765625 -2.640625 C 0.546875 -3.171875 0.0507812 -3.875 -0.71875 -4.75 L -8.625 -13.71875 C -9.289062 -13.832031 -9.863281 -13.890625 -10.34375 -13.890625 C -10.820312 -13.890625 -11.285156 -13.828125 -11.734375 -13.703125 L -8.46875 -16.5625 C -8.300781 -16.507812 -8.09375 -16.441406 -7.84375 -16.359375 C -7.59375 -16.273438 -7.257812 -16.207031 -6.84375 -16.15625 L 9.328125 -13.703125 L 3.140625 -20.71875 C 2.367188 -21.601562 1.707031 -22.21875 1.15625 -22.5625 C 0.601562 -22.914062 0.140625 -23.085938 -0.234375 -23.078125 C -0.617188 -23.078125 -0.957031 -22.96875 -1.25 -22.75 Z M -1.34375 -22.84375 "/></g></g></g><g fill="#000000" fill-opacity="1"><g transform="translate(312.37755, 280.952768)"><g><path d="M -3.359375 -24.921875 L -0.203125 -20.34375 L -0.28125 -20.25 C -1.539062 -21.476562 -2.6875 -22.050781 -3.71875 -21.96875 C -4.757812 -21.894531 -5.6875 -21.34375 -6.5 -20.3125 L -7.671875 -18.828125 L 4.859375 -8.984375 C 5.328125 -8.617188 5.769531 -8.539062 6.1875 -8.75 C 6.613281 -8.96875 7.101562 -9.363281 7.65625 -9.9375 L 7.75 -9.859375 L 3.0625 -3.90625 L 2.96875 -3.984375 C 3.394531 -4.648438 3.664062 -5.210938 3.78125 -5.671875 C 3.894531 -6.140625 3.71875 -6.554688 3.25 -6.921875 L -9.28125 -16.765625 L -9.65625 -16.296875 C -10.257812 -15.523438 -10.6875 -14.816406 -10.9375 -14.171875 C -11.195312 -13.535156 -11.316406 -12.914062 -11.296875 -12.3125 C -11.273438 -11.707031 -11.132812 -11.066406 -10.875 -10.390625 C -10.613281 -9.722656 -10.253906 -8.972656 -9.796875 -8.140625 L -9.859375 -8.0625 L -13.484375 -12.015625 Z M -3.359375 -24.921875 "/></g></g></g><g clip-path="url(#e0c71e648f)"><path fill="#000000" d="M 90.425781 89.328125 C 90.363281 89.128906 90.175781 88.992188 89.96875 88.992188 L 81.816406 89.007812 L 79.3125 81.253906 C 79.25 81.054688 79.0625 80.917969 78.855469 80.917969 C 78.644531 80.917969 78.457031 81.054688 78.394531 81.253906 L 75.890625 89.007812 L 67.742188 88.992188 L 67.738281 88.992188 C 67.53125 88.992188 67.34375 89.128906 67.28125 89.328125 C 67.214844 89.527344 67.285156 89.746094 67.457031 89.867188 L 74.058594 94.644531 L 71.527344 102.390625 C 71.460938 102.589844 71.53125 102.808594 71.703125 102.929688 C 71.871094 103.054688 72.101562 103.054688 72.269531 102.929688 L 78.851562 98.128906 L 85.4375 102.929688 C 85.523438 102.992188 85.621094 103.023438 85.722656 103.023438 C 85.820312 103.023438 85.921875 102.992188 86.007812 102.933594 C 86.175781 102.808594 86.246094 102.589844 86.179688 102.390625 L 83.648438 94.644531 L 90.25 89.867188 C 90.417969 89.746094 90.488281 89.527344 90.425781 89.328125 Z M 90.425781 89.328125 " fill-opacity="1" fill-rule="evenodd"/></g><g clip-path="url(#8f1fdb0974)"><path fill="#000000" d="M 306.988281 89.328125 C 306.925781 89.128906 306.738281 88.992188 306.527344 88.992188 L 298.378906 89.007812 L 295.875 81.253906 C 295.8125 81.054688 295.625 80.917969 295.414062 80.917969 C 295.207031 80.917969 295.019531 81.054688 294.957031 81.253906 L 292.453125 89.007812 L 284.304688 88.992188 L 284.300781 88.992188 C 284.09375 88.992188 283.90625 89.128906 283.84375 89.328125 C 283.777344 89.527344 283.847656 89.746094 284.019531 89.867188 L 290.621094 94.644531 L 288.085938 102.390625 C 288.023438 102.589844 288.09375 102.808594 288.261719 102.929688 C 288.433594 103.054688 288.664062 103.054688 288.832031 102.929688 L 295.414062 98.128906 L 302 102.929688 C 302.085938 102.992188 302.183594 103.023438 302.285156 103.023438 C 302.382812 103.023438 302.484375 102.992188 302.566406 102.933594 C 302.738281 102.808594 302.808594 102.589844 302.742188 102.390625 L 300.210938 94.644531 L 306.8125 89.867188 C 306.980469 89.746094 307.050781 89.527344 306.988281 89.328125 Z M 306.988281 89.328125 " fill-opacity="1" fill-rule="evenodd"/></g><g clip-path="url(#88f56e1907)"><path fill="#000000" d="M 65.882812 226.917969 C 65.820312 226.722656 65.636719 226.585938 65.425781 226.585938 L 57.273438 226.601562 L 54.773438 218.847656 C 54.707031 218.648438 54.523438 218.511719 54.3125 218.511719 C 54.101562 218.511719 53.917969 218.648438 53.855469 218.847656 L 51.347656 226.601562 L 43.199219 226.585938 C 42.988281 226.585938 42.804688 226.71875 42.742188 226.917969 C 42.675781 227.117188 42.746094 227.335938 42.914062 227.460938 L 49.519531 232.238281 L 46.984375 239.984375 C 46.917969 240.179688 46.988281 240.398438 47.160156 240.523438 C 47.328125 240.644531 47.558594 240.644531 47.726562 240.523438 L 54.3125 235.71875 L 60.894531 240.523438 C 60.980469 240.585938 61.082031 240.617188 61.179688 240.617188 C 61.28125 240.617188 61.378906 240.585938 61.464844 240.523438 C 61.632812 240.402344 61.703125 240.183594 61.640625 239.984375 L 59.105469 232.238281 L 65.707031 227.460938 C 65.878906 227.335938 65.949219 227.117188 65.882812 226.917969 Z M 65.882812 226.917969 " fill-opacity="1" fill-rule="evenodd"/></g><g clip-path="url(#b684c46808)"><path fill="#000000" d="M 337.445312 226.917969 C 337.378906 226.722656 337.195312 226.585938 336.984375 226.585938 L 328.835938 226.601562 L 326.332031 218.847656 C 326.269531 218.648438 326.082031 218.511719 325.871094 218.511719 C 325.664062 218.511719 325.476562 218.648438 325.414062 218.847656 L 322.910156 226.601562 L 314.761719 226.585938 L 314.757812 226.585938 C 314.550781 226.585938 314.363281 226.71875 314.300781 226.917969 C 314.234375 227.117188 314.304688 227.335938 314.476562 227.460938 L 321.078125 232.238281 L 318.542969 239.984375 C 318.480469 240.179688 318.550781 240.398438 318.71875 240.523438 C 318.886719 240.644531 319.121094 240.644531 319.289062 240.523438 L 325.871094 235.71875 L 332.457031 240.523438 C 332.539062 240.585938 332.640625 240.617188 332.738281 240.617188 C 332.839844 240.617188 332.941406 240.585938 333.023438 240.523438 C 333.191406 240.402344 333.265625 240.183594 333.199219 239.984375 L 330.664062 232.238281 L 337.265625 227.460938 C 337.4375 227.335938 337.507812 227.117188 337.441406 226.917969 Z M 337.445312 226.917969 " fill-opacity="1" fill-rule="evenodd"/></g><g clip-path="url(#71b172b76d)"><g clip-path="url(#49799d4b8b)"><path fill="#faf7f5" d="M 70.585938 71.035156 L 304.429688 71.035156 L 304.429688 303.964844 L 70.585938 303.964844 Z M 70.585938 71.035156 " fill-opacity="1" fill-rule="nonzero"/></g></g><g clip-path="url(#c4d0820897)"><g clip-path="url(#40011b0936)"><path stroke-linecap="butt" transform="matrix(0.75, 0, 0, 0.75, 70.591589, 71.033844)" fill="none" stroke-linejoin="miter" d="M 155.877892 0.00174949 C 69.789345 0.00174949 -0.00232655 69.522587 -0.00232655 155.28301 C -0.00232655 241.038224 69.789345 310.56427 155.877892 310.56427 C 241.966439 310.56427 311.752902 241.038224 311.752902 155.28301 C 311.752902 69.522587 241.966439 0.00174949 155.877892 0.00174949 Z M 155.877892 0.00174949 " stroke="#000000" stroke-width="2" stroke-opacity="1" stroke-miterlimit="4"/></g></g><g fill="#000000" fill-opacity="1"><g transform="translate(312.34684, 121.362055)"><g><path d="M 19.84375 10.703125 L 20.71875 16.296875 L 20.625 16.3125 C 20.445312 15.863281 20.242188 15.453125 20.015625 15.078125 C 19.796875 14.710938 19.5 14.378906 19.125 14.078125 C 18.75 13.773438 18.238281 13.484375 17.59375 13.203125 L 9.34375 9.5625 L 3.140625 10.53125 C 2.679688 10.601562 2.394531 10.859375 2.28125 11.296875 C 2.175781 11.734375 2.140625 12.28125 2.171875 12.9375 L 2.046875 12.953125 L 0.953125 6.015625 L 1.078125 6 C 1.253906 6.625 1.457031 7.125 1.6875 7.5 C 1.925781 7.875 2.273438 8.023438 2.734375 7.953125 L 8.421875 7.0625 L 15.890625 0.625 C 16.554688 0.0507812 17.015625 -0.484375 17.265625 -0.984375 C 17.523438 -1.492188 17.660156 -1.960938 17.671875 -2.390625 L 17.765625 -2.40625 L 18.4375 1.859375 L 16.359375 3.578125 L 9.78125 9.203125 L 17.515625 12.5625 C 18.179688 12.84375 18.671875 12.9375 18.984375 12.84375 C 19.296875 12.75 19.5 12.515625 19.59375 12.140625 C 19.695312 11.765625 19.75 11.289062 19.75 10.71875 Z M 19.84375 10.703125 "/></g></g></g><g fill="#000000" fill-opacity="1"><g transform="translate(316.38096, 149.874224)"><g><path d="M 18.71875 10.03125 C 18.769531 11.363281 18.609375 12.617188 18.234375 13.796875 C 17.859375 14.972656 17.285156 16.019531 16.515625 16.9375 C 15.742188 17.863281 14.789062 18.597656 13.65625 19.140625 C 12.519531 19.679688 11.238281 19.984375 9.8125 20.046875 C 8.382812 20.109375 7.082031 19.914062 5.90625 19.46875 C 4.738281 19.019531 3.726562 18.367188 2.875 17.515625 C 2.03125 16.660156 1.367188 15.660156 0.890625 14.515625 C 0.410156 13.378906 0.144531 12.144531 0.09375 10.8125 C 0.0390625 9.488281 0.203125 8.234375 0.578125 7.046875 C 0.953125 5.859375 1.523438 4.800781 2.296875 3.875 C 3.078125 2.957031 4.03125 2.226562 5.15625 1.6875 C 6.289062 1.144531 7.570312 0.84375 9 0.78125 C 10.425781 0.71875 11.726562 0.910156 12.90625 1.359375 C 14.082031 1.804688 15.09375 2.457031 15.9375 3.3125 C 16.78125 4.164062 17.441406 5.164062 17.921875 6.3125 C 18.398438 7.46875 18.664062 8.707031 18.71875 10.03125 Z M 0.609375 11.8125 C 0.648438 12.988281 1 14.003906 1.65625 14.859375 C 2.3125 15.710938 3.203125 16.351562 4.328125 16.78125 C 5.453125 17.21875 6.738281 17.40625 8.1875 17.34375 C 9.457031 17.289062 10.703125 17.039062 11.921875 16.59375 C 13.148438 16.15625 14.242188 15.5625 15.203125 14.8125 C 16.160156 14.070312 16.914062 13.207031 17.46875 12.21875 C 18.019531 11.226562 18.269531 10.148438 18.21875 8.984375 C 18.164062 7.816406 17.804688 6.8125 17.140625 5.96875 C 16.484375 5.125 15.597656 4.484375 14.484375 4.046875 C 13.367188 3.609375 12.085938 3.421875 10.640625 3.484375 C 9.347656 3.535156 8.097656 3.78125 6.890625 4.21875 C 5.679688 4.664062 4.59375 5.257812 3.625 6 C 2.65625 6.75 1.894531 7.617188 1.34375 8.609375 C 0.800781 9.597656 0.554688 10.664062 0.609375 11.8125 Z M 0.609375 11.8125 "/></g></g></g><g fill="#000000" fill-opacity="1"><g transform="translate(317.059421, 180.55072)"><g><path d="M -1.015625 9.21875 C -0.960938 8.570312 -0.8125 7.859375 -0.5625 7.078125 C -0.3125 6.304688 0.09375 5.570312 0.65625 4.875 C 1.21875 4.1875 1.976562 3.644531 2.9375 3.25 C 3.90625 2.851562 5.125 2.707031 6.59375 2.8125 L 16.25 3.484375 C 16.707031 3.515625 17.039062 3.34375 17.25 2.96875 C 17.46875 2.601562 17.625 2.160156 17.71875 1.640625 L 17.84375 1.65625 L 17.390625 8.140625 L 17.265625 8.125 C 17.234375 7.59375 17.140625 7.125 16.984375 6.71875 C 16.835938 6.320312 16.535156 6.109375 16.078125 6.078125 L 5.984375 5.375 C 4.847656 5.289062 3.890625 5.394531 3.109375 5.6875 C 2.328125 5.976562 1.695312 6.375 1.21875 6.875 C 0.738281 7.375 0.378906 7.910156 0.140625 8.484375 C -0.0976562 9.054688 -0.234375 9.582031 -0.265625 10.0625 C -0.304688 10.59375 -0.242188 11.175781 -0.078125 11.8125 C 0.0859375 12.457031 0.382812 13.070312 0.8125 13.65625 C 1.25 14.238281 1.832031 14.734375 2.5625 15.140625 C 3.289062 15.546875 4.203125 15.785156 5.296875 15.859375 L 12.25 16.34375 C 13.40625 16.425781 14.300781 16.394531 14.9375 16.25 C 15.570312 16.113281 16.019531 15.890625 16.28125 15.578125 C 16.550781 15.273438 16.71875 14.898438 16.78125 14.453125 L 16.921875 14.46875 L 16.59375 19.140625 L 16.453125 19.125 C 16.441406 18.789062 16.363281 18.46875 16.21875 18.15625 C 16.082031 17.84375 15.753906 17.578125 15.234375 17.359375 C 14.710938 17.148438 13.875 17.003906 12.71875 16.921875 L 5.703125 16.421875 C 4.078125 16.304688 2.753906 15.90625 1.734375 15.21875 C 0.710938 14.539062 -0.0195312 13.675781 -0.46875 12.625 C -0.914062 11.570312 -1.097656 10.4375 -1.015625 9.21875 Z M -1.015625 9.21875 "/></g></g></g><g fill="#000000" fill-opacity="1"><g transform="translate(120.056343, 71.513142)"><g><path d="M 15.703125 -8.53125 C 16.242188 -7.875 16.695312 -7.378906 17.0625 -7.046875 C 17.425781 -6.710938 17.757812 -6.492188 18.0625 -6.390625 C 18.375 -6.285156 18.71875 -6.273438 19.09375 -6.359375 L 19.125 -6.25 L 12.265625 -4 L 12.234375 -4.109375 C 12.785156 -4.335938 13.222656 -4.597656 13.546875 -4.890625 C 13.878906 -5.191406 14.023438 -5.550781 13.984375 -5.96875 C 13.953125 -6.394531 13.675781 -6.914062 13.15625 -7.53125 L 12.265625 -8.59375 L 2.703125 -5.46875 L 2.578125 -4.078125 C 2.503906 -3.285156 2.566406 -2.710938 2.765625 -2.359375 C 2.960938 -2.003906 3.253906 -1.796875 3.640625 -1.734375 C 4.023438 -1.671875 4.457031 -1.671875 4.9375 -1.734375 L 4.96875 -1.625 L 0.484375 -0.15625 L 0.453125 -0.265625 C 0.765625 -0.460938 1.023438 -0.695312 1.234375 -0.96875 C 1.453125 -1.238281 1.625 -1.601562 1.75 -2.0625 C 1.875 -2.519531 1.96875 -3.144531 2.03125 -3.9375 L 3.375 -18.203125 L 3.15625 -18.71875 L 3.46875 -19.109375 L 5.25 -21.34375 C 5.269531 -21.257812 5.332031 -21.125 5.4375 -20.9375 C 5.550781 -20.757812 5.847656 -20.40625 6.328125 -19.875 Z M 2.75 -5.984375 L 11.9375 -8.984375 L 3.9375 -18.578125 Z M 2.75 -5.984375 "/></g></g></g><g fill="#000000" fill-opacity="1"><g transform="translate(148.050359, 63.059309)"><g><path d="M 19.046875 -20.890625 C 18.523438 -20.734375 18.085938 -20.539062 17.734375 -20.3125 C 17.378906 -20.082031 17.238281 -19.734375 17.3125 -19.265625 L 19.53125 -4.40625 C 19.601562 -3.9375 19.84375 -3.644531 20.25 -3.53125 C 20.65625 -3.414062 21.128906 -3.363281 21.671875 -3.375 L 21.6875 -3.25 L 15.234375 -2.28125 L 15.21875 -2.40625 C 15.738281 -2.5625 16.175781 -2.753906 16.53125 -2.984375 C 16.882812 -3.210938 17.023438 -3.5625 16.953125 -4.03125 L 14.703125 -19.03125 L 10.125 -1.234375 L 0.6875 -14.640625 L 2.140625 -4.921875 C 2.304688 -3.765625 2.523438 -2.890625 2.796875 -2.296875 C 3.078125 -1.703125 3.378906 -1.3125 3.703125 -1.125 C 4.035156 -0.9375 4.378906 -0.835938 4.734375 -0.828125 L 4.75 -0.703125 L 0.390625 -0.0625 L 0.375 -0.1875 C 0.707031 -0.289062 1.007812 -0.441406 1.28125 -0.640625 C 1.550781 -0.835938 1.734375 -1.210938 1.828125 -1.765625 C 1.921875 -2.316406 1.882812 -3.171875 1.71875 -4.328125 L 0.03125 -15.578125 C -0.269531 -16.035156 -0.601562 -16.441406 -0.96875 -16.796875 C -1.332031 -17.148438 -1.8125 -17.484375 -2.40625 -17.796875 L 1.25 -18.34375 L 10.578125 -5.09375 L 14.515625 -20.34375 L 19.03125 -21.015625 Z M 19.046875 -20.890625 "/></g></g></g><g fill="#000000" fill-opacity="1"><g transform="translate(178.692488, 59.234004)"><g><path d="M 11.203125 -18.109375 C 12.546875 -18.078125 13.796875 -17.832031 14.953125 -17.375 C 16.109375 -16.925781 17.117188 -16.285156 17.984375 -15.453125 C 18.859375 -14.628906 19.53125 -13.632812 20 -12.46875 C 20.476562 -11.300781 20.703125 -10 20.671875 -8.5625 C 20.640625 -7.125 20.363281 -5.832031 19.84375 -4.6875 C 19.320312 -3.539062 18.609375 -2.566406 17.703125 -1.765625 C 16.796875 -0.972656 15.757812 -0.378906 14.59375 0.015625 C 13.425781 0.421875 12.171875 0.609375 10.828125 0.578125 C 9.492188 0.554688 8.242188 0.320312 7.078125 -0.125 C 5.910156 -0.582031 4.890625 -1.222656 4.015625 -2.046875 C 3.140625 -2.878906 2.46875 -3.878906 2 -5.046875 C 1.53125 -6.210938 1.3125 -7.515625 1.34375 -8.953125 C 1.375 -10.390625 1.644531 -11.679688 2.15625 -12.828125 C 2.675781 -13.972656 3.390625 -14.941406 4.296875 -15.734375 C 5.210938 -16.535156 6.257812 -17.132812 7.4375 -17.53125 C 8.613281 -17.9375 9.867188 -18.128906 11.203125 -18.109375 Z M 11.859375 0.140625 C 13.035156 0.160156 14.070312 -0.128906 14.96875 -0.734375 C 15.875 -1.335938 16.578125 -2.179688 17.078125 -3.265625 C 17.578125 -4.359375 17.84375 -5.632812 17.875 -7.09375 C 17.90625 -8.375 17.734375 -9.640625 17.359375 -10.890625 C 16.984375 -12.148438 16.453125 -13.28125 15.765625 -14.28125 C 15.085938 -15.289062 14.273438 -16.101562 13.328125 -16.71875 C 12.378906 -17.332031 11.320312 -17.648438 10.15625 -17.671875 C 8.976562 -17.691406 7.941406 -17.398438 7.046875 -16.796875 C 6.160156 -16.191406 5.460938 -15.34375 4.953125 -14.25 C 4.441406 -13.164062 4.171875 -11.898438 4.140625 -10.453125 C 4.109375 -9.148438 4.273438 -7.875 4.640625 -6.625 C 5.015625 -5.382812 5.539062 -4.253906 6.21875 -3.234375 C 6.90625 -2.222656 7.726562 -1.410156 8.6875 -0.796875 C 9.65625 -0.191406 10.710938 0.117188 11.859375 0.140625 Z M 11.859375 0.140625 "/></g></g></g><g fill="#000000" fill-opacity="1"><g transform="translate(208.95207, 60.670692)"><g><path d="M 17.046875 -15.140625 L 21.421875 -14.34375 L 21.40625 -14.21875 C 21.050781 -14.25 20.710938 -14.207031 20.390625 -14.09375 C 20.078125 -13.988281 19.78125 -13.6875 19.5 -13.1875 C 19.226562 -12.695312 18.988281 -11.875 18.78125 -10.71875 L 17.03125 -1.21875 C 16.789062 0.09375 16.617188 1.117188 16.515625 1.859375 C 16.421875 2.597656 16.335938 3.195312 16.265625 3.65625 L 16.21875 3.703125 L 5.828125 -14.515625 L 3.875 -3.90625 C 3.664062 -2.757812 3.59375 -1.863281 3.65625 -1.21875 C 3.71875 -0.570312 3.875 -0.109375 4.125 0.171875 C 4.375 0.460938 4.664062 0.664062 5 0.78125 L 4.984375 0.90625 L 0.625 0.109375 L 0.640625 -0.015625 C 1.015625 0.00390625 1.359375 -0.03125 1.671875 -0.125 C 1.984375 -0.226562 2.273438 -0.53125 2.546875 -1.03125 C 2.816406 -1.53125 3.0625 -2.351562 3.28125 -3.5 L 5.421875 -15.203125 C 5.097656 -15.785156 4.785156 -16.265625 4.484375 -16.640625 C 4.191406 -17.015625 3.859375 -17.34375 3.484375 -17.625 L 7.71875 -16.84375 C 7.789062 -16.675781 7.875 -16.46875 7.96875 -16.21875 C 8.0625 -15.96875 8.207031 -15.664062 8.40625 -15.3125 L 16.46875 -1.15625 L 18.15625 -10.3125 C 18.363281 -11.457031 18.4375 -12.351562 18.375 -13 C 18.3125 -13.65625 18.15625 -14.128906 17.90625 -14.421875 C 17.664062 -14.722656 17.375 -14.921875 17.03125 -15.015625 Z M 17.046875 -15.140625 "/></g></g></g><g fill="#000000" fill-opacity="1"><g transform="translate(235.942327, 66.248656)"><g><path d="M 21.671875 -0.578125 C 21.148438 -0.691406 20.675781 -0.722656 20.25 -0.671875 C 19.820312 -0.617188 19.53125 -0.378906 19.375 0.046875 L 17.734375 4.6875 C 17.578125 5.132812 17.648438 5.503906 17.953125 5.796875 C 18.265625 6.097656 18.660156 6.367188 19.140625 6.609375 L 19.09375 6.734375 L 14.546875 5.125 L 15.34375 3.6875 C 14.601562 4.070312 13.765625 4.289062 12.828125 4.34375 C 11.890625 4.394531 10.898438 4.234375 9.859375 3.859375 C 8.691406 3.453125 7.65625 2.847656 6.75 2.046875 C 5.84375 1.242188 5.109375 0.304688 4.546875 -0.765625 C 3.984375 -1.847656 3.648438 -3.007812 3.546875 -4.25 C 3.441406 -5.5 3.617188 -6.773438 4.078125 -8.078125 C 4.578125 -9.484375 5.289062 -10.632812 6.21875 -11.53125 C 7.144531 -12.4375 8.207031 -13.097656 9.40625 -13.515625 C 10.601562 -13.941406 11.851562 -14.144531 13.15625 -14.125 C 14.46875 -14.101562 15.742188 -13.875 16.984375 -13.4375 C 18.554688 -12.882812 19.796875 -12.164062 20.703125 -11.28125 C 21.617188 -10.394531 22.226562 -9.515625 22.53125 -8.640625 L 17.953125 -5.4375 L 17.875 -5.484375 C 18.488281 -6.179688 18.894531 -6.910156 19.09375 -7.671875 C 19.289062 -8.441406 19.289062 -9.195312 19.09375 -9.9375 C 18.894531 -10.6875 18.503906 -11.359375 17.921875 -11.953125 C 17.335938 -12.554688 16.570312 -13.023438 15.625 -13.359375 C 14.550781 -13.734375 13.472656 -13.816406 12.390625 -13.609375 C 11.316406 -13.398438 10.328125 -12.878906 9.421875 -12.046875 C 8.523438 -11.222656 7.8125 -10.050781 7.28125 -8.53125 C 6.832031 -7.269531 6.609375 -6.019531 6.609375 -4.78125 C 6.617188 -3.539062 6.835938 -2.375 7.265625 -1.28125 C 7.691406 -0.1875 8.296875 0.765625 9.078125 1.578125 C 9.867188 2.398438 10.832031 3.007812 11.96875 3.40625 C 12.707031 3.664062 13.367188 3.773438 13.953125 3.734375 C 14.535156 3.703125 15.046875 3.546875 15.484375 3.265625 L 16.921875 -0.8125 C 17.023438 -1.101562 16.972656 -1.363281 16.765625 -1.59375 C 16.554688 -1.832031 16.109375 -2.109375 15.421875 -2.421875 C 14.734375 -2.742188 13.695312 -3.164062 12.3125 -3.6875 L 12.890625 -3.796875 L 21.703125 -0.6875 Z M 21.671875 -0.578125 "/></g></g></g><g fill="#000000" fill-opacity="1"><g transform="translate(263.444331, 77.011842)"><g/></g></g><g fill="#000000" fill-opacity="1"><g transform="translate(61.17868, 204.612214)"><g><path d="M -18.375 -10.65625 C -18.382812 -11.988281 -18.179688 -13.234375 -17.765625 -14.390625 C -17.347656 -15.546875 -16.738281 -16.570312 -15.9375 -17.46875 C -15.144531 -18.375 -14.171875 -19.078125 -13.015625 -19.578125 C -11.867188 -20.085938 -10.582031 -20.347656 -9.15625 -20.359375 C -7.71875 -20.367188 -6.421875 -20.128906 -5.265625 -19.640625 C -4.109375 -19.160156 -3.117188 -18.476562 -2.296875 -17.59375 C -1.472656 -16.707031 -0.84375 -15.6875 -0.40625 -14.53125 C 0.03125 -13.382812 0.253906 -12.144531 0.265625 -10.8125 C 0.273438 -9.476562 0.0703125 -8.222656 -0.34375 -7.046875 C -0.757812 -5.867188 -1.367188 -4.832031 -2.171875 -3.9375 C -2.984375 -3.050781 -3.960938 -2.351562 -5.109375 -1.84375 C -6.253906 -1.34375 -7.546875 -1.085938 -8.984375 -1.078125 C -10.410156 -1.066406 -11.703125 -1.300781 -12.859375 -1.78125 C -14.023438 -2.269531 -15.015625 -2.953125 -15.828125 -3.828125 C -16.640625 -4.703125 -17.265625 -5.722656 -17.703125 -6.890625 C -18.140625 -8.066406 -18.363281 -9.320312 -18.375 -10.65625 Z M -0.21875 -11.828125 C -0.226562 -13.003906 -0.546875 -14.03125 -1.171875 -14.90625 C -1.796875 -15.78125 -2.660156 -16.453125 -3.765625 -16.921875 C -4.878906 -17.390625 -6.160156 -17.617188 -7.609375 -17.609375 C -8.890625 -17.597656 -10.144531 -17.390625 -11.375 -16.984375 C -12.613281 -16.578125 -13.722656 -16.019531 -14.703125 -15.3125 C -15.691406 -14.601562 -16.476562 -13.765625 -17.0625 -12.796875 C -17.644531 -11.828125 -17.929688 -10.757812 -17.921875 -9.59375 C -17.910156 -8.414062 -17.585938 -7.394531 -16.953125 -6.53125 C -16.316406 -5.664062 -15.445312 -4.992188 -14.34375 -4.515625 C -13.25 -4.046875 -11.976562 -3.816406 -10.53125 -3.828125 C -9.226562 -3.835938 -7.960938 -4.039062 -6.734375 -4.4375 C -5.515625 -4.84375 -4.410156 -5.398438 -3.421875 -6.109375 C -2.429688 -6.828125 -1.644531 -7.671875 -1.0625 -8.640625 C -0.488281 -9.617188 -0.207031 -10.679688 -0.21875 -11.828125 Z M -0.21875 -11.828125 "/></g></g></g><g fill="#000000" fill-opacity="1"><g transform="translate(61.583855, 174.125173)"><g><path d="M -16.0625 -16.109375 L -15.515625 -20.5 L -15.390625 -20.484375 C -15.398438 -20.128906 -15.34375 -19.796875 -15.21875 -19.484375 C -15.101562 -19.171875 -14.785156 -18.894531 -14.265625 -18.65625 C -13.753906 -18.414062 -12.925781 -18.222656 -11.78125 -18.078125 L -2.203125 -16.890625 C -0.878906 -16.734375 0.148438 -16.625 0.890625 -16.5625 C 1.628906 -16.5 2.234375 -16.453125 2.703125 -16.421875 L 2.75 -16.34375 L -14.796875 -4.953125 L -4.125 -3.640625 C -2.976562 -3.492188 -2.082031 -3.46875 -1.4375 -3.5625 C -0.789062 -3.664062 -0.328125 -3.851562 -0.046875 -4.125 C 0.222656 -4.394531 0.40625 -4.695312 0.5 -5.03125 L 0.625 -5.015625 L 0.078125 -0.640625 L -0.046875 -0.65625 C -0.0546875 -1.007812 -0.117188 -1.335938 -0.234375 -1.640625 C -0.359375 -1.953125 -0.675781 -2.234375 -1.1875 -2.484375 C -1.695312 -2.734375 -2.523438 -2.925781 -3.671875 -3.0625 L -15.46875 -4.53125 C -16.03125 -4.164062 -16.488281 -3.820312 -16.84375 -3.5 C -17.195312 -3.1875 -17.5 -2.835938 -17.75 -2.453125 L -17.21875 -6.734375 C -17.0625 -6.796875 -16.859375 -6.878906 -16.609375 -6.984375 C -16.367188 -7.085938 -16.082031 -7.253906 -15.75 -7.484375 L -2.109375 -16.328125 L -11.34375 -17.46875 C -12.5 -17.613281 -13.394531 -17.632812 -14.03125 -17.53125 C -14.664062 -17.4375 -15.125 -17.257812 -15.40625 -17 C -15.6875 -16.738281 -15.863281 -16.4375 -15.9375 -16.09375 Z M -16.0625 -16.109375 "/></g></g></g><g fill="#000000" fill-opacity="1"><g transform="translate(65.610485, 146.578887)"><g><path d="M -1.0625 -16.515625 L -0.96875 -16.59375 L 3.515625 -14.1875 L 4.03125 -13.90625 L 3.265625 -13.1875 L 0.09375 -0.375 L -0.03125 -0.40625 C -0.0820312 -0.957031 -0.203125 -1.457031 -0.390625 -1.90625 C -0.585938 -2.351562 -0.90625 -2.628906 -1.34375 -2.734375 L -15.421875 -6.234375 C -15.867188 -6.335938 -16.226562 -6.222656 -16.5 -5.890625 C -16.769531 -5.566406 -16.992188 -5.15625 -17.171875 -4.65625 L -17.296875 -4.6875 L -14 -18 L -9.859375 -17.859375 L -9.8125 -17.75 C -10.75 -17.40625 -11.539062 -17.050781 -12.1875 -16.6875 C -12.84375 -16.332031 -13.378906 -15.890625 -13.796875 -15.359375 C -14.222656 -14.835938 -14.546875 -14.117188 -14.765625 -13.203125 L -15.8125 -9.015625 L -7.71875 -7 L -6.859375 -10.484375 C -6.640625 -11.359375 -6.550781 -12.066406 -6.59375 -12.609375 C -6.632812 -13.160156 -6.800781 -13.625 -7.09375 -14 C -7.382812 -14.375 -7.804688 -14.734375 -8.359375 -15.078125 L -2.9375 -13.734375 C -3.613281 -13.691406 -4.164062 -13.570312 -4.59375 -13.375 C -5.03125 -13.1875 -5.394531 -12.859375 -5.6875 -12.390625 C -5.976562 -11.929688 -6.234375 -11.265625 -6.453125 -10.390625 L -7.3125 -6.90625 L 0.796875 -4.890625 L 1.953125 -9.5625 C 2.179688 -10.488281 2.203125 -11.300781 2.015625 -12 C 1.835938 -12.707031 1.484375 -13.414062 0.953125 -14.125 C 0.421875 -14.832031 -0.25 -15.628906 -1.0625 -16.515625 Z M -1.0625 -16.515625 "/></g></g></g><g fill="#000000" fill-opacity="1"><g transform="translate(72.420173, 121.93186)"><g/></g></g><g fill="#000000" fill-opacity="1"><g transform="translate(120.254446, 223.084409)"><g><path d="M 13.875 -4.65625 L 13.96875 -4.625 L 12.8125 0 L 12.671875 0.484375 L 11.9375 0 L 0.328125 0 L 0.328125 -0.109375 C 0.773438 -0.265625 1.160156 -0.46875 1.484375 -0.71875 C 1.816406 -0.96875 1.984375 -1.289062 1.984375 -1.6875 L 1.984375 -14.078125 C 1.984375 -14.472656 1.816406 -14.742188 1.484375 -14.890625 C 1.160156 -15.046875 0.773438 -15.15625 0.328125 -15.21875 L 0.328125 -15.328125 L 12.375 -15.328125 L 13.171875 -11.46875 L 13.09375 -11.421875 C 12.539062 -12.242188 12.035156 -12.914062 11.578125 -13.4375 C 11.128906 -13.96875 10.613281 -14.351562 10.03125 -14.59375 C 9.457031 -14.84375 8.695312 -14.96875 7.75 -14.96875 L 4.984375 -14.96875 L 4.984375 -7.84375 L 6.828125 -7.84375 C 7.734375 -7.84375 8.46875 -7.914062 9.03125 -8.0625 C 9.59375 -8.21875 10.03125 -8.484375 10.34375 -8.859375 C 10.664062 -9.242188 10.914062 -9.769531 11.09375 -10.4375 L 11.09375 -4.90625 C 10.914062 -5.570312 10.664062 -6.09375 10.34375 -6.46875 C 10.03125 -6.84375 9.59375 -7.101562 9.03125 -7.25 C 8.46875 -7.40625 7.734375 -7.484375 6.828125 -7.484375 L 4.984375 -7.484375 L 4.984375 -0.34375 L 7.875 -0.34375 C 8.820312 -0.34375 9.628906 -0.5 10.296875 -0.8125 C 10.972656 -1.132812 11.585938 -1.613281 12.140625 -2.25 C 12.703125 -2.882812 13.28125 -3.6875 13.875 -4.65625 Z M 13.875 -4.65625 "/></g></g></g><g fill="#000000" fill-opacity="1"><g transform="translate(137.605562, 223.084409)"><g><path d="M 7.703125 -9.15625 C 8.785156 -8.90625 9.664062 -8.597656 10.34375 -8.234375 C 11.019531 -7.867188 11.539062 -7.46875 11.90625 -7.03125 C 12.269531 -6.59375 12.519531 -6.148438 12.65625 -5.703125 C 12.800781 -5.253906 12.875 -4.828125 12.875 -4.421875 C 12.875 -3.535156 12.628906 -2.734375 12.140625 -2.015625 C 11.660156 -1.296875 10.96875 -0.726562 10.0625 -0.3125 C 9.164062 0.101562 8.070312 0.3125 6.78125 0.3125 C 5.457031 0.3125 4.289062 0.113281 3.28125 -0.28125 C 2.269531 -0.6875 1.46875 -1.175781 0.875 -1.75 L 2.890625 -4.953125 C 2.816406 -4.191406 2.90625 -3.503906 3.15625 -2.890625 C 3.414062 -2.285156 3.78125 -1.769531 4.25 -1.34375 C 4.71875 -0.925781 5.25 -0.601562 5.84375 -0.375 C 6.445312 -0.15625 7.050781 -0.046875 7.65625 -0.046875 C 8.300781 -0.046875 8.820312 -0.144531 9.21875 -0.34375 C 9.625 -0.550781 9.9375 -0.8125 10.15625 -1.125 C 10.375 -1.4375 10.523438 -1.769531 10.609375 -2.125 C 10.703125 -2.476562 10.75 -2.800781 10.75 -3.09375 C 10.75 -3.75 10.59375 -4.257812 10.28125 -4.625 C 9.96875 -5 9.503906 -5.300781 8.890625 -5.53125 C 8.285156 -5.769531 7.546875 -5.988281 6.671875 -6.1875 C 5.253906 -6.53125 4.15625 -6.976562 3.375 -7.53125 C 2.601562 -8.082031 2.054688 -8.6875 1.734375 -9.34375 C 1.421875 -10 1.265625 -10.644531 1.265625 -11.28125 C 1.265625 -12.175781 1.503906 -12.945312 1.984375 -13.59375 C 2.472656 -14.25 3.148438 -14.75 4.015625 -15.09375 C 4.878906 -15.445312 5.90625 -15.625 7.09375 -15.625 C 8.363281 -15.625 9.453125 -15.429688 10.359375 -15.046875 C 11.273438 -14.660156 12.023438 -14.191406 12.609375 -13.640625 L 10.53125 -10.4375 C 10.632812 -11.1875 10.570312 -11.859375 10.34375 -12.453125 C 10.113281 -13.054688 9.78125 -13.566406 9.34375 -13.984375 C 8.90625 -14.410156 8.398438 -14.734375 7.828125 -14.953125 C 7.253906 -15.179688 6.664062 -15.296875 6.0625 -15.296875 C 5.375 -15.296875 4.835938 -15.160156 4.453125 -14.890625 C 4.066406 -14.617188 3.800781 -14.28125 3.65625 -13.875 C 3.507812 -13.46875 3.4375 -13.0625 3.4375 -12.65625 C 3.4375 -11.894531 3.632812 -11.285156 4.03125 -10.828125 C 4.425781 -10.378906 4.945312 -10.03125 5.59375 -9.78125 C 6.238281 -9.53125 6.941406 -9.320312 7.703125 -9.15625 Z M 7.703125 -9.15625 "/></g></g></g><g fill="#000000" fill-opacity="1"><g transform="translate(154.409697, 223.084409)"><g><path d="M 15.28125 -15.328125 L 13.875 -10.8125 L 13.796875 -10.8125 C 13.890625 -11.800781 13.785156 -12.601562 13.484375 -13.21875 C 13.179688 -13.832031 12.722656 -14.28125 12.109375 -14.5625 C 11.492188 -14.851562 10.773438 -15 9.953125 -15 L 9.125 -15 L 9.125 -1.46875 C 9.125 -0.96875 9.304688 -0.628906 9.671875 -0.453125 C 10.035156 -0.285156 10.554688 -0.171875 11.234375 -0.109375 L 11.234375 0 L 4.03125 0 L 4.03125 -0.109375 C 4.695312 -0.171875 5.210938 -0.285156 5.578125 -0.453125 C 5.941406 -0.628906 6.125 -0.96875 6.125 -1.46875 L 6.125 -15 C 5.050781 -15 4.160156 -14.851562 3.453125 -14.5625 C 2.742188 -14.269531 2.144531 -13.816406 1.65625 -13.203125 C 1.175781 -12.597656 0.726562 -11.800781 0.3125 -10.8125 L 0.21875 -10.8125 L 0.9375 -15.328125 Z M 15.28125 -15.328125 "/></g></g></g><g fill="#000000" fill-opacity="1"><g transform="translate(172.964144, 223.084409)"><g><path d="M 2.734375 0.15625 C 2.296875 0.15625 1.910156 0 1.578125 -0.3125 C 1.253906 -0.625 1.09375 -1.015625 1.09375 -1.484375 C 1.09375 -1.921875 1.253906 -2.285156 1.578125 -2.578125 C 1.910156 -2.867188 2.296875 -3.015625 2.734375 -3.015625 C 3.160156 -3.015625 3.53125 -2.867188 3.84375 -2.578125 C 4.164062 -2.285156 4.328125 -1.921875 4.328125 -1.484375 C 4.328125 -1.015625 4.164062 -0.625 3.84375 -0.3125 C 3.53125 0 3.160156 0.15625 2.734375 0.15625 Z M 2.734375 0.15625 "/></g></g></g><g fill="#000000" fill-opacity="1"><g transform="translate(181.454281, 223.084409)"><g/></g></g><g fill="#000000" fill-opacity="1"><g transform="translate(188.894227, 223.084409)"><g><path d="M 12.609375 -5.390625 L 12.71875 -5.34375 L 11.90625 0.484375 L 11.125 0 L 1.484375 0 L 1.203125 -1.65625 L 3.5625 -3.34375 C 4.632812 -4.101562 5.609375 -4.890625 6.484375 -5.703125 C 7.367188 -6.523438 8.070312 -7.390625 8.59375 -8.296875 C 9.125 -9.210938 9.390625 -10.195312 9.390625 -11.25 C 9.390625 -11.863281 9.28125 -12.472656 9.0625 -13.078125 C 8.84375 -13.679688 8.5 -14.1875 8.03125 -14.59375 C 7.5625 -15.007812 6.945312 -15.207031 6.1875 -15.1875 C 5.476562 -15.175781 4.894531 -14.976562 4.4375 -14.59375 C 3.988281 -14.21875 3.65625 -13.722656 3.4375 -13.109375 C 3.21875 -12.492188 3.109375 -11.832031 3.109375 -11.125 C 3.117188 -10.414062 3.222656 -9.722656 3.421875 -9.046875 L 3.34375 -9.046875 L 0.875 -13.0625 C 1.238281 -13.414062 1.734375 -13.789062 2.359375 -14.1875 C 2.992188 -14.59375 3.734375 -14.929688 4.578125 -15.203125 C 5.429688 -15.484375 6.378906 -15.625 7.421875 -15.625 C 8.890625 -15.625 10.054688 -15.304688 10.921875 -14.671875 C 11.785156 -14.035156 12.21875 -13.160156 12.21875 -12.046875 C 12.21875 -11.160156 11.96875 -10.332031 11.46875 -9.5625 C 10.96875 -8.800781 10.304688 -8.0625 9.484375 -7.34375 C 8.660156 -6.632812 7.757812 -5.929688 6.78125 -5.234375 C 5.800781 -4.535156 4.832031 -3.820312 3.875 -3.09375 L 2.90625 -2.359375 L 8.25 -2.390625 C 9.039062 -2.398438 9.679688 -2.445312 10.171875 -2.53125 C 10.660156 -2.625 11.050781 -2.773438 11.34375 -2.984375 C 11.632812 -3.203125 11.867188 -3.503906 12.046875 -3.890625 C 12.234375 -4.273438 12.421875 -4.773438 12.609375 -5.390625 Z M 12.609375 -5.390625 "/></g></g></g><g fill="#000000" fill-opacity="1"><g transform="translate(205.764008, 223.084409)"><g><path d="M 7.578125 -15.625 C 8.859375 -15.625 9.988281 -15.316406 10.96875 -14.703125 C 11.945312 -14.097656 12.710938 -13.195312 13.265625 -12 C 13.816406 -10.8125 14.09375 -9.359375 14.09375 -7.640625 C 14.09375 -5.929688 13.816406 -4.484375 13.265625 -3.296875 C 12.710938 -2.117188 11.941406 -1.222656 10.953125 -0.609375 C 9.972656 0.00390625 8.835938 0.3125 7.546875 0.3125 C 6.265625 0.3125 5.128906 0.00390625 4.140625 -0.609375 C 3.148438 -1.234375 2.375 -2.140625 1.8125 -3.328125 C 1.257812 -4.523438 0.984375 -5.976562 0.984375 -7.6875 C 0.984375 -9.40625 1.257812 -10.851562 1.8125 -12.03125 C 2.375 -13.207031 3.148438 -14.097656 4.140625 -14.703125 C 5.128906 -15.316406 6.273438 -15.625 7.578125 -15.625 Z M 8.53125 -0.0625 C 9.4375 -0.0625 10.125 -0.53125 10.59375 -1.46875 C 11.0625 -2.414062 11.296875 -3.742188 11.296875 -5.453125 C 11.296875 -6.335938 11.226562 -7.238281 11.09375 -8.15625 C 10.96875 -9.082031 10.769531 -9.96875 10.5 -10.8125 C 10.238281 -11.65625 9.914062 -12.410156 9.53125 -13.078125 C 9.15625 -13.753906 8.71875 -14.285156 8.21875 -14.671875 C 7.71875 -15.054688 7.160156 -15.25 6.546875 -15.25 C 5.648438 -15.25 4.960938 -14.785156 4.484375 -13.859375 C 4.015625 -12.941406 3.78125 -11.632812 3.78125 -9.9375 C 3.78125 -9.050781 3.847656 -8.144531 3.984375 -7.21875 C 4.117188 -6.289062 4.316406 -5.398438 4.578125 -4.546875 C 4.835938 -3.691406 5.15625 -2.925781 5.53125 -2.25 C 5.914062 -1.582031 6.359375 -1.050781 6.859375 -0.65625 C 7.367188 -0.257812 7.925781 -0.0625 8.53125 -0.0625 Z M 8.53125 -0.0625 "/></g></g></g><g fill="#000000" fill-opacity="1"><g transform="translate(223.902766, 223.084409)"><g><path d="M 12.609375 -5.390625 L 12.71875 -5.34375 L 11.90625 0.484375 L 11.125 0 L 1.484375 0 L 1.203125 -1.65625 L 3.5625 -3.34375 C 4.632812 -4.101562 5.609375 -4.890625 6.484375 -5.703125 C 7.367188 -6.523438 8.070312 -7.390625 8.59375 -8.296875 C 9.125 -9.210938 9.390625 -10.195312 9.390625 -11.25 C 9.390625 -11.863281 9.28125 -12.472656 9.0625 -13.078125 C 8.84375 -13.679688 8.5 -14.1875 8.03125 -14.59375 C 7.5625 -15.007812 6.945312 -15.207031 6.1875 -15.1875 C 5.476562 -15.175781 4.894531 -14.976562 4.4375 -14.59375 C 3.988281 -14.21875 3.65625 -13.722656 3.4375 -13.109375 C 3.21875 -12.492188 3.109375 -11.832031 3.109375 -11.125 C 3.117188 -10.414062 3.222656 -9.722656 3.421875 -9.046875 L 3.34375 -9.046875 L 0.875 -13.0625 C 1.238281 -13.414062 1.734375 -13.789062 2.359375 -14.1875 C 2.992188 -14.59375 3.734375 -14.929688 4.578125 -15.203125 C 5.429688 -15.484375 6.378906 -15.625 7.421875 -15.625 C 8.890625 -15.625 10.054688 -15.304688 10.921875 -14.671875 C 11.785156 -14.035156 12.21875 -13.160156 12.21875 -12.046875 C 12.21875 -11.160156 11.96875 -10.332031 11.46875 -9.5625 C 10.96875 -8.800781 10.304688 -8.0625 9.484375 -7.34375 C 8.660156 -6.632812 7.757812 -5.929688 6.78125 -5.234375 C 5.800781 -4.535156 4.832031 -3.820312 3.875 -3.09375 L 2.90625 -2.359375 L 8.25 -2.390625 C 9.039062 -2.398438 9.679688 -2.445312 10.171875 -2.53125 C 10.660156 -2.625 11.050781 -2.773438 11.34375 -2.984375 C 11.632812 -3.203125 11.867188 -3.503906 12.046875 -3.890625 C 12.234375 -4.273438 12.421875 -4.773438 12.609375 -5.390625 Z M 12.609375 -5.390625 "/></g></g></g><g fill="#000000" fill-opacity="1"><g transform="translate(240.772547, 223.084409)"><g><path d="M 11.84375 -3.96875 C 11.613281 -3.976562 11.375 -3.984375 11.125 -3.984375 C 10.882812 -3.984375 10.648438 -3.988281 10.421875 -4 L 10.421875 -2.34375 C 10.421875 -1.875 10.46875 -1.484375 10.5625 -1.171875 C 10.65625 -0.867188 10.851562 -0.632812 11.15625 -0.46875 C 11.457031 -0.300781 11.910156 -0.175781 12.515625 -0.09375 L 12.515625 0 L 5.359375 0 L 5.359375 -0.09375 C 5.972656 -0.175781 6.4375 -0.296875 6.75 -0.453125 C 7.0625 -0.617188 7.269531 -0.851562 7.375 -1.15625 C 7.488281 -1.46875 7.546875 -1.863281 7.546875 -2.34375 L 7.546875 -3.59375 C 7.546875 -3.8125 7.609375 -3.960938 7.734375 -4.046875 L 7.6875 -4.046875 C 6.664062 -4.078125 5.6875 -4.085938 4.75 -4.078125 C 3.8125 -4.078125 2.914062 -4.0625 2.0625 -4.03125 C 1.75 -4.007812 1.453125 -3.988281 1.171875 -3.96875 C 0.890625 -3.945312 0.695312 -3.921875 0.59375 -3.890625 L 0.546875 -3.890625 L 6.8125 -13.03125 L 7.140625 -13.859375 L 11.296875 -15.765625 L 11.296875 -15.671875 C 11.148438 -15.566406 10.96875 -15.398438 10.75 -15.171875 C 10.53125 -14.953125 10.421875 -14.585938 10.421875 -14.078125 L 10.421875 -5.890625 C 10.503906 -5.890625 10.585938 -5.890625 10.671875 -5.890625 C 10.765625 -5.898438 10.859375 -5.90625 10.953125 -5.90625 C 11.390625 -5.925781 11.722656 -6.007812 11.953125 -6.15625 C 12.179688 -6.300781 12.382812 -6.578125 12.5625 -6.984375 C 12.75 -7.390625 12.960938 -7.992188 13.203125 -8.796875 L 13.3125 -8.75 L 12.515625 -3.8125 Z M 2.25 -5.890625 C 3.226562 -5.859375 4.144531 -5.832031 5 -5.8125 C 5.851562 -5.800781 6.703125 -5.804688 7.546875 -5.828125 L 7.546875 -13.390625 Z M 2.25 -5.890625 "/></g></g></g><g fill="#191919" fill-opacity="1"><g transform="translate(97.226671, 188.946463)"><g><path d="M 36.84375 -12.40625 L 37.078125 -12.28125 L 33.953125 0 L 33.59375 1.328125 L 31.546875 0 L 0.90625 0 L 0.90625 -0.296875 C 2.144531 -0.742188 3.21875 -1.523438 4.125 -2.640625 C 5.03125 -3.765625 5.484375 -5.132812 5.484375 -6.75 L 5.484375 -38.703125 C 5.484375 -39.796875 5.03125 -40.550781 4.125 -40.96875 C 3.21875 -41.382812 2.144531 -41.675781 0.90625 -41.84375 L 0.90625 -42.140625 L 18.90625 -42.140625 L 18.90625 -41.84375 C 17.375 -41.675781 16.125 -41.382812 15.15625 -40.96875 C 14.195312 -40.550781 13.71875 -39.796875 13.71875 -38.703125 L 13.71875 -0.96875 L 18.359375 -0.96875 C 20.890625 -0.96875 23.035156 -1.226562 24.796875 -1.75 C 26.566406 -2.269531 28.101562 -3.007812 29.40625 -3.96875 C 30.707031 -4.9375 31.929688 -6.128906 33.078125 -7.546875 C 34.222656 -8.972656 35.476562 -10.59375 36.84375 -12.40625 Z M 36.84375 -12.40625 "/></g></g></g><g fill="#191919" fill-opacity="1"><g transform="translate(138.222558, 188.946463)"><g><path d="M 42.796875 -7.578125 C 43.523438 -5.734375 44.171875 -4.300781 44.734375 -3.28125 C 45.296875 -2.257812 45.882812 -1.523438 46.5 -1.078125 C 47.125 -0.640625 47.878906 -0.359375 48.765625 -0.234375 L 48.765625 0 L 29.734375 0 L 29.734375 -0.234375 C 31.140625 -0.359375 32.300781 -0.628906 33.21875 -1.046875 C 34.144531 -1.472656 34.726562 -2.164062 34.96875 -3.125 C 35.21875 -4.09375 34.976562 -5.457031 34.25 -7.21875 L 33.046875 -10.234375 L 10.046875 -10.234375 L 8.734375 -7.21875 C 7.960938 -5.5 7.675781 -4.175781 7.875 -3.25 C 8.082031 -2.320312 8.585938 -1.648438 9.390625 -1.234375 C 10.191406 -0.816406 11.15625 -0.484375 12.28125 -0.234375 L 12.28125 0 L 1.203125 0 L 1.203125 -0.234375 C 2.046875 -0.484375 2.796875 -0.828125 3.453125 -1.265625 C 4.117188 -1.703125 4.765625 -2.382812 5.390625 -3.3125 C 6.015625 -4.238281 6.6875 -5.5625 7.40625 -7.28125 L 20.59375 -37.6875 L 20.46875 -39.4375 L 21.609375 -40.09375 L 28.71875 -43.890625 C 28.71875 -43.722656 28.785156 -43.367188 28.921875 -42.828125 C 29.066406 -42.285156 29.457031 -41.234375 30.09375 -39.671875 Z M 10.46875 -11.3125 L 32.625 -11.3125 L 21.96875 -37.875 Z M 10.46875 -11.3125 "/></g></g></g><g fill="#191919" fill-opacity="1"><g transform="translate(191.198074, 188.946463)"><g><path d="M 33.046875 -42.140625 L 43.34375 -42.140625 L 43.34375 -41.84375 C 42.539062 -41.757812 41.785156 -41.523438 41.078125 -41.140625 C 40.378906 -40.765625 39.816406 -39.941406 39.390625 -38.671875 C 38.972656 -37.410156 38.765625 -35.414062 38.765625 -32.6875 L 38.765625 -10 C 38.765625 -6.863281 38.804688 -4.421875 38.890625 -2.671875 C 38.972656 -0.929688 39.035156 0.476562 39.078125 1.5625 L 38.953125 1.6875 L 7.28125 -35.9375 L 7.28125 -10.65625 C 7.28125 -7.925781 7.488281 -5.828125 7.90625 -4.359375 C 8.332031 -2.898438 8.894531 -1.890625 9.59375 -1.328125 C 10.300781 -0.765625 11.054688 -0.421875 11.859375 -0.296875 L 11.859375 0 L 1.5 0 L 1.5 -0.296875 C 2.34375 -0.421875 3.101562 -0.660156 3.78125 -1.015625 C 4.46875 -1.378906 5.019531 -2.191406 5.4375 -3.453125 C 5.863281 -4.722656 6.078125 -6.722656 6.078125 -9.453125 L 6.078125 -37.390625 C 5.078125 -38.585938 4.15625 -39.554688 3.3125 -40.296875 C 2.46875 -41.046875 1.566406 -41.660156 0.609375 -42.140625 L 12.703125 -42.140625 C 12.898438 -41.859375 13.148438 -41.523438 13.453125 -41.140625 C 13.753906 -40.765625 14.109375 -40.253906 14.515625 -39.609375 L 37.625 -12.34375 L 37.625 -31.484375 C 37.625 -34.210938 37.410156 -36.304688 36.984375 -37.765625 C 36.566406 -39.234375 36.015625 -40.257812 35.328125 -40.84375 C 34.648438 -41.425781 33.890625 -41.757812 33.046875 -41.84375 Z M 33.046875 -42.140625 "/></g></g></g><g fill="#191919" fill-opacity="1"><g transform="translate(238.454674, 188.946463)"><g><path d="M 38.171875 -12.828125 L 38.40625 -12.703125 L 35.21875 0 L 34.859375 1.328125 L 32.8125 0 L 0.90625 0 L 0.90625 -0.296875 C 2.144531 -0.742188 3.21875 -1.304688 4.125 -1.984375 C 5.03125 -2.671875 5.484375 -3.554688 5.484375 -4.640625 L 5.484375 -38.703125 C 5.484375 -39.796875 5.03125 -40.550781 4.125 -40.96875 C 3.21875 -41.382812 2.144531 -41.675781 0.90625 -41.84375 L 0.90625 -42.140625 L 34.015625 -42.140625 L 36.25 -31.546875 L 36 -31.421875 C 34.476562 -33.671875 33.09375 -35.515625 31.84375 -36.953125 C 30.601562 -38.398438 29.1875 -39.460938 27.59375 -40.140625 C 26.007812 -40.828125 23.914062 -41.171875 21.3125 -41.171875 L 13.71875 -41.171875 L 13.71875 -21.546875 L 18.78125 -21.546875 C 21.269531 -21.546875 23.285156 -21.753906 24.828125 -22.171875 C 26.378906 -22.597656 27.59375 -23.332031 28.46875 -24.375 C 29.351562 -25.425781 30.035156 -26.875 30.515625 -28.71875 L 30.515625 -13.484375 C 30.035156 -15.328125 29.351562 -16.757812 28.46875 -17.78125 C 27.59375 -18.8125 26.378906 -19.535156 24.828125 -19.953125 C 23.285156 -20.378906 21.269531 -20.59375 18.78125 -20.59375 L 13.71875 -20.59375 L 13.71875 -0.96875 L 21.671875 -0.96875 C 24.285156 -0.96875 26.515625 -1.394531 28.359375 -2.25 C 30.203125 -3.113281 31.882812 -4.421875 33.40625 -6.171875 C 34.9375 -7.921875 36.523438 -10.140625 38.171875 -12.828125 Z M 38.171875 -12.828125 "/></g></g></g></svg>